<svg xmlns="http://www.w3.org/2000/svg" xmlns:xlink="http://www.w3.org/1999/xlink" width="65" height="65" viewBox="0 0 65 65">
  <defs>
    <clipPath id="clip-path">
      <rect id="Rectangle_7404" data-name="Rectangle 7404" width="65" height="65" transform="translate(-13285 -22903)" fill="#fff"/>
    </clipPath>
    <linearGradient id="linear-gradient" x1="0.501" y1="-0.415" x2="0.501" y2="0.824" gradientUnits="objectBoundingBox">
      <stop offset="0" stop-color="#1dbbbe"/>
      <stop offset="0.175" stop-color="#169ca7"/>
      <stop offset="0.418" stop-color="#0d778d"/>
      <stop offset="0.644" stop-color="#075c7a"/>
      <stop offset="0.845" stop-color="#034c6e"/>
      <stop offset="1" stop-color="#02466a"/>
    </linearGradient>
    <linearGradient id="linear-gradient-2" x1="0.497" y1="-9.512" x2="0.497" y2="3.961" xlink:href="#linear-gradient"/>
    <linearGradient id="linear-gradient-3" x1="0.002" y1="0.5" x2="1" y2="0.5" xlink:href="#linear-gradient"/>
    <linearGradient id="linear-gradient-4" x1="0.502" y1="-6.411" x2="0.502" y2="1.945" xlink:href="#linear-gradient"/>
    <linearGradient id="linear-gradient-5" x1="0.498" y1="-13.735" x2="0.498" y2="7.399" xlink:href="#linear-gradient"/>
    <linearGradient id="linear-gradient-6" x1="0.497" y1="-183.758" x2="0.497" y2="39.852" gradientUnits="objectBoundingBox">
      <stop offset="0.324" stop-color="#8dc340"/>
      <stop offset="1" stop-color="#026938"/>
    </linearGradient>
    <linearGradient id="linear-gradient-7" x1="0.497" y1="-188.558" x2="0.497" y2="119.401" gradientUnits="objectBoundingBox">
      <stop offset="0.308" stop-color="#8dc340"/>
      <stop offset="1" stop-color="#026938"/>
    </linearGradient>
    <linearGradient id="linear-gradient-8" x1="-0.001" y1="0.5" x2="0.997" y2="0.5" gradientUnits="objectBoundingBox">
      <stop offset="0.001" stop-color="#79b9e5"/>
      <stop offset="1" stop-color="#463e97"/>
    </linearGradient>
    <linearGradient id="linear-gradient-9" x1="0" y1="0.499" x2="0.999" y2="0.499" xlink:href="#linear-gradient"/>
    <linearGradient id="linear-gradient-10" x1="-0.002" y1="0.5" x2="0.996" y2="0.5" xlink:href="#linear-gradient"/>
    <linearGradient id="linear-gradient-11" y1="0.5" x2="1" y2="0.5" gradientUnits="objectBoundingBox">
      <stop offset="0.001" stop-color="#1dbbbe"/>
      <stop offset="1" stop-color="#02466a"/>
    </linearGradient>
  </defs>
  <g id="Mask_Group_3" data-name="Mask Group 3" transform="translate(13285 22903)" clip-path="url(#clip-path)">
    <g id="Logo" transform="translate(-13292.783 -22897.531)">
      <g id="Group_17758" data-name="Group 17758">
        <path id="Path_11048" data-name="Path 11048" d="M68.625,23.983V19.631h0a4.547,4.547,0,0,0-9.014,0v4.328a.654.654,0,0,0-.239.5.108.108,0,0,0,.012.06.649.649,0,0,0,.646.586.658.658,0,0,0,.646-.586c0-.024.012-.036.012-.06a.642.642,0,0,0-.215-.478V19.631a3.691,3.691,0,0,1,7.317,0v4.34a.654.654,0,0,0-.239.5.108.108,0,0,0,.012.06.649.649,0,0,0,.646.586.658.658,0,0,0,.646-.586c0-.024.012-.036.012-.06A.669.669,0,0,0,68.625,23.983Z" fill="#b6be34"/>
        <path id="Path_11049" data-name="Path 11049" d="M65.755,31.252c-.012.024-.036.036-.048.06C65.72,31.288,65.743,31.276,65.755,31.252Z" fill="none"/>
        <path id="Path_11050" data-name="Path 11050" d="M69.82,22.2h-.873v1.638a.946.946,0,0,1,.227.622.98.98,0,0,1-1.961,0,.927.927,0,0,1,.239-.634V22.2H60.782v1.65a1,1,0,0,1,.215.61.98.98,0,0,1-1.961,0,1.02,1.02,0,0,1,.239-.646V22.189h-.885a1.329,1.329,0,0,0-1.315,1.172l-1.626,13.5a1.037,1.037,0,0,0,.024.43c.514-.12,1.016-.251,1.494-.406.323-.1.634-.2.944-.323.466-.167.909-.347,1.339-.55.143-.06.287-.132.43-.2.275-.132.55-.275.825-.418.084-.048.155-.084.239-.132-.191-.311-.335-.562-.466-.8-.143-.263-.275-.622-.036-.849a.583.583,0,0,1,.395-.155.553.553,0,0,1,.383.155l.012.012.813.956c.012-.012.036-.024.048-.036.084-.048.155-.108.239-.155.132-.084.263-.179.395-.275.179-.132.371-.263.538-.406.012-.012.036-.024.048-.036l.06-4.447a.559.559,0,0,1,.55-.562.523.523,0,0,1,.395.167.559.559,0,0,1,.155.406l-.048,3.491c.191-.167.371-.335.55-.514V31.8a.559.559,0,0,1,.55-.562.576.576,0,0,1,.287.084.52.52,0,0,0,.072-.084c.012-.024.036-.036.048-.06.155-.179.323-.359.466-.538s.287-.347.418-.514c.108-.143.215-.287.323-.418.383-.514.741-1.04,1.064-1.542.048-.072.084-.143.132-.215.072-.108.132-.227.2-.335a2.221,2.221,0,0,0,.132-.227c.215-.371.418-.741.6-1.1.048-.084.084-.179.132-.263s.084-.167.12-.251a2.558,2.558,0,0,0,.12-.263c.036-.072.072-.155.108-.227s.084-.179.12-.263a25.658,25.658,0,0,0,.956-2.594A1.621,1.621,0,0,0,69.82,22.2Zm-6.1,5.38a1.171,1.171,0,0,0-1.04,1.722l.012.036V30.2l-.251-.263a1.733,1.733,0,0,1,1.279-2.905,1.741,1.741,0,0,1,1.3,2.893l-.239.275v-.9l.012-.024a1.169,1.169,0,0,0-.2-1.291A1.1,1.1,0,0,0,63.723,27.581Zm1.805,3.144a2.362,2.362,0,0,1-.55.383l-.2.108v-.622l.06-.036a2.029,2.029,0,0,0,.992-1.7,2.118,2.118,0,1,0-3.67,1.351,2.008,2.008,0,0,0,.454.359l.072.036v.622l-.2-.108a2.549,2.549,0,0,1-.729-.55,2.7,2.7,0,0,1-.705-1.913,2.607,2.607,0,0,1,.861-1.853,2.663,2.663,0,0,1,3.766.155,2.7,2.7,0,0,1,.705,1.913A2.591,2.591,0,0,1,65.528,30.726Z" fill="url(#linear-gradient)"/>
        <path id="Path_11051" data-name="Path 11051" d="M62.527,34.157c-.132.1-.263.179-.395.275a2.706,2.706,0,0,1-.239.155c-.012.012-.036.024-.048.036l.777.909a.274.274,0,0,0,.2.1.263.263,0,0,0,.1-.012.27.27,0,0,0,.179-.251l.024-1.65c-.012.012-.036.024-.048.036C62.9,33.882,62.707,34.013,62.527,34.157Z" fill="url(#linear-gradient-2)"/>
        <path id="Path_11052" data-name="Path 11052" d="M72.773,36.871,71.6,27.2l-.466-3.826a1.336,1.336,0,0,0-.5-.885h0a20.79,20.79,0,0,1-.956,2.594,2.558,2.558,0,0,1-.12.263c-.036.072-.072.143-.108.227s-.084.179-.12.263-.084.167-.12.251-.084.167-.132.263c-.179.359-.383.729-.6,1.1-.048.072-.084.155-.132.227-.072.108-.132.227-.2.335-.048.072-.084.143-.132.215-.323.5-.67,1.028-1.064,1.542-.108.143-.215.287-.323.418-.132.167-.275.347-.418.514l-.466.538c-.012.024-.036.036-.048.06a.52.52,0,0,0-.072.084h.012a.529.529,0,0,1,.251.478l-.024,1.913a.276.276,0,0,0,.263.275.268.268,0,0,0,.275-.263l.024-1.363a.559.559,0,0,1,.55-.562.523.523,0,0,1,.395.167.559.559,0,0,1,.155.406L67.5,34.348a.276.276,0,0,0,.263.275.268.268,0,0,0,.275-.263l.012-1.231a.559.559,0,0,1,.55-.562.523.523,0,0,1,.395.167.559.559,0,0,1,.155.406l-.036,2.881a12.678,12.678,0,0,1-.49,2.319h2.8A1.318,1.318,0,0,0,72.773,36.871Z" fill="url(#linear-gradient-3)"/>
        <path id="Path_11053" data-name="Path 11053" d="M61.691,36.835c-.287-.454-.61-.968-.933-1.494-.012-.012-.012-.024-.024-.048-.084.048-.155.084-.239.132-.263.143-.538.287-.825.418-.143.072-.287.132-.43.2-.43.191-.873.371-1.339.55-.311.108-.622.215-.944.323-.478.155-.98.287-1.494.406a1.324,1.324,0,0,0,1.3,1.052h5.846a.52.52,0,0,0-.048-.084C62.336,37.851,62.025,37.349,61.691,36.835Z" fill="url(#linear-gradient-4)"/>
        <path id="Path_11054" data-name="Path 11054" d="M64.237,33.212a.276.276,0,0,0,.263.275.268.268,0,0,0,.275-.263l.012-.956c-.179.167-.359.347-.55.514Z" fill="url(#linear-gradient-5)"/>
        <path id="Path_11055" data-name="Path 11055" d="M65.636,31.383a.52.52,0,0,0,.072-.084.52.52,0,0,1-.072.084Z" fill="url(#linear-gradient-6)"/>
        <path id="Path_11056" data-name="Path 11056" d="M65.636,31.383a.52.52,0,0,0,.072-.084.52.52,0,0,1-.072.084Z" fill="url(#linear-gradient-7)"/>
      </g>
      <g id="Group_17763" data-name="Group 17763">
        <rect id="Rectangle_7405" data-name="Rectangle 7405" width="3.324" height="8.668" transform="translate(48.42 28.717)" fill="url(#linear-gradient-8)"/>
        <path id="Path_11057" data-name="Path 11057" d="M35.317,34.121a.843.843,0,0,0-.873,1.064h5.272l1.351-1.076C39.154,34.109,37.241,34.109,35.317,34.121Z" fill="none"/>
        <path id="Path_11058" data-name="Path 11058" d="M13.94,31.132h-2.3v2.977h1.734A6.166,6.166,0,0,1,13.94,31.132Z" fill="url(#linear-gradient-9)"/>
        <path id="Path_11059" data-name="Path 11059" d="M24.736,36.56a.824.824,0,0,0-.992.024,1.14,1.14,0,0,0-.395.789h1.817A.924.924,0,0,0,24.736,36.56Z" fill="url(#linear-gradient-10)"/>
        <path id="Path_11060" data-name="Path 11060" d="M24.927,36.261a1.222,1.222,0,0,0-.681-.2,1.165,1.165,0,0,0-.717.251A1.474,1.474,0,0,0,22.99,37.4h.179a1.335,1.335,0,0,1,.466-.944,1,1,0,0,1,1.2-.036,1.1,1.1,0,0,1,.5.98h.179A1.267,1.267,0,0,0,24.927,36.261Z" fill="#fff"/>
        <path id="Path_11061" data-name="Path 11061" d="M24.832,36.417a1,1,0,0,0-1.2.036,1.313,1.313,0,0,0-.466.944h2.164A1.082,1.082,0,0,0,24.832,36.417Zm-1.088.167a.824.824,0,0,1,.992-.024.9.9,0,0,1,.418.813H23.337A1.2,1.2,0,0,1,23.744,36.584Z" fill="#fff"/>
        <path id="Path_11062" data-name="Path 11062" d="M48.623,25.86v2.212h.06l2.786-2.212Z" fill="#b6be34"/>
        <path id="Path_11063" data-name="Path 11063" d="M44.654,35.185A1.79,1.79,0,0,0,44.4,34.5a.672.672,0,0,0-.55-.383H41.079L39.728,35.2C41.366,35.185,43,35.185,44.654,35.185Z" fill="#fff" opacity="0.2"/>
        <path id="Path_11064" data-name="Path 11064" d="M47.32,34.384a3.627,3.627,0,0,0-.454-1.841,2.487,2.487,0,0,0-2-1.447,2.026,2.026,0,0,0-.275-.012c-2.857-.012-5.7-.012-8.56,0a2.586,2.586,0,0,0-.741.108,1.734,1.734,0,0,0-1.016.885v-3.36H31.539v6.468H29.925V28.717h-2.63v6.468H25.561v-4.1H22.967v4.1H21.484a5.639,5.639,0,0,0-.466-1.351,9.355,9.355,0,0,0-.514-.813,4.835,4.835,0,0,0-1.076-1.076,4.75,4.75,0,0,0-1.674-.777,3.547,3.547,0,0,0-1.375-.06c-.048.012-.084.036-.084.084a9.682,9.682,0,0,0-.191,1.315,4.525,4.525,0,0,0,.215,1.59c.179,0,.383-.012.574,0a4.816,4.816,0,0,1,.586.036,1.07,1.07,0,0,1,.909,1.04H16.535a3.154,3.154,0,0,1-.275-.526A5.073,5.073,0,0,1,15.9,32.5a6.445,6.445,0,0,1,.347-1.805,3.477,3.477,0,0,1,.586-1.076,2.342,2.342,0,0,1,.777-.586c.1-.048.215-.1.239-.239a.355.355,0,0,0-.239-.1,1.967,1.967,0,0,0-.371.048,3.478,3.478,0,0,0-1.231.406,4.523,4.523,0,0,0-1.566,1.518,5.518,5.518,0,0,0-.9,2.845,6.091,6.091,0,0,0,.179,1.674H10.353V28.717H7.783v8.668H22.99a1.474,1.474,0,0,1,.538-1.088,1.165,1.165,0,0,1,.717-.251,1.326,1.326,0,0,1,.681.2,1.261,1.261,0,0,1,.586,1.124H47.32C47.32,36.381,47.308,35.376,47.32,34.384Zm-12.876.8a.848.848,0,0,1,.873-1.064c1.913-.012,3.838-.012,5.751-.012h2.774a.672.672,0,0,1,.55.383,1.674,1.674,0,0,1,.251.681h-10.2Z" fill="#1dbbbe"/>
        <path id="Path_11065" data-name="Path 11065" d="M47.32,34.372a3.627,3.627,0,0,0-.454-1.841,2.487,2.487,0,0,0-2-1.447l-3.8,3.013h2.774a.672.672,0,0,1,.55.383,1.674,1.674,0,0,1,.251.681H39.716l-2.774,2.224H47.32C47.32,36.369,47.308,35.364,47.32,34.372Z" opacity="0.1" fill="url(#linear-gradient-11)"/>
        <path id="Path_11066" data-name="Path 11066" d="M51.72,31.359V28.717h-3.3v8.668h3.36C51.708,35.364,51.708,33.332,51.72,31.359Z" fill="#1dbbbe"/>
        <path id="Path_11067" data-name="Path 11067" d="M51.528,25.86h-.06l-2.786,2.212h2.845Z" fill="#326ab2"/>
        <path id="Path_11068" data-name="Path 11068" d="M51.528,25.86h-.06l-2.786,2.212h2.845Z" fill="#b6be34"/>
        <g id="Group_17761" data-name="Group 17761">
          <g id="Group_17760" data-name="Group 17760">
            <g id="Group_17759" data-name="Group 17759">
              <path id="Path_11069" data-name="Path 11069" d="M51.732,28.275H48.42v-2.63h3.324v2.63ZM48.6,28.1h2.953v-2.26H48.6Z" fill="#b6be34"/>
            </g>
          </g>
        </g>
        <g id="Group_17762" data-name="Group 17762">
          <path id="Path_11070" data-name="Path 11070" d="M50.452,26.374a.353.353,0,0,1-.191.179.491.491,0,0,0-.227.191.386.386,0,0,0,.2.12,1.425,1.425,0,0,1,.239.1.247.247,0,0,1,.12.2.413.413,0,0,1-.036.155,1.029,1.029,0,0,1-.765.586c-.143.024-.3.048-.454.072.132-.06.263-.12.406-.179a3.026,3.026,0,0,0,.395-.191c.036-.024.06-.048.06-.072s0-.012-.012-.024c-.048-.024-.108-.06-.167-.084s-.12-.06-.167-.084A.254.254,0,0,1,49.7,27.1a.714.714,0,0,1,.191-.406,4.608,4.608,0,0,1,.526-.6.776.776,0,0,1,.227-.12Z" fill="#fff"/>
        </g>
      </g>
    </g>
  </g>
</svg>
